<?xml version="1.0"?>
<svg xmlns="http://www.w3.org/2000/svg" xmlns:xlink="http://www.w3.org/1999/xlink" xmlns:svgjs="http://svgjs.com/svgjs" version="1.1" width="512" height="512" x="0" y="0" viewBox="0 0 31.627 31.626" style="enable-background:new 0 0 512 512" xml:space="preserve" class=""><g>
<g xmlns="http://www.w3.org/2000/svg">
	<path d="M31.123,4.396c-2.739-1.753-5.07-1.404-7.102-0.246c-1.777-1.518-3.445-1.568-3.445-1.568l-2.534,2.536   C13.356,2.863,7.57,3.667,3.688,7.55c-4.917,4.917-4.917,12.891,0,17.807c4.917,4.918,12.889,4.918,17.806,0   c3.885-3.883,4.688-9.67,2.436-14.354l2.535-2.536c0,0-0.035-1.192-0.957-2.633c1.403-0.674,2.792-0.655,4.438,0.4   c0.507,0.325,1.184,0.177,1.508-0.331C31.778,5.396,31.634,4.722,31.123,4.396z M11.714,8.655C11.467,8.708,5.641,10,4.843,15.39   c-0.088,0.594-0.644,1.008-1.241,0.918c-0.24-0.035-0.451-0.146-0.61-0.307c-0.236-0.236-0.362-0.577-0.309-0.934   c1.023-6.913,8.28-8.487,8.588-8.55c0.591-0.121,1.167,0.259,1.291,0.848C12.682,7.956,12.304,8.532,11.714,8.655z M15.453,7.961   c-0.421,0.422-1.107,0.421-1.528,0c-0.422-0.422-0.422-1.106,0-1.528c0.421-0.422,1.107-0.421,1.528,0   C15.875,6.854,15.875,7.54,15.453,7.961z" fill="#000000" data-original="#000000" style="" class=""/>
</g>
<g xmlns="http://www.w3.org/2000/svg">
</g>
<g xmlns="http://www.w3.org/2000/svg">
</g>
<g xmlns="http://www.w3.org/2000/svg">
</g>
<g xmlns="http://www.w3.org/2000/svg">
</g>
<g xmlns="http://www.w3.org/2000/svg">
</g>
<g xmlns="http://www.w3.org/2000/svg">
</g>
<g xmlns="http://www.w3.org/2000/svg">
</g>
<g xmlns="http://www.w3.org/2000/svg">
</g>
<g xmlns="http://www.w3.org/2000/svg">
</g>
<g xmlns="http://www.w3.org/2000/svg">
</g>
<g xmlns="http://www.w3.org/2000/svg">
</g>
<g xmlns="http://www.w3.org/2000/svg">
</g>
<g xmlns="http://www.w3.org/2000/svg">
</g>
<g xmlns="http://www.w3.org/2000/svg">
</g>
<g xmlns="http://www.w3.org/2000/svg">
</g>
</g></svg>
